<?xml version="1.0" encoding="UTF-8"?>
<svg xmlns="http://www.w3.org/2000/svg" xmlns:xlink="http://www.w3.org/1999/xlink" width="512px" height="512px" viewBox="0 0 512 512" version="1.1">
<g id="surface1">
<path style=" stroke:none;fill-rule:nonzero;fill:rgb(0%,0%,0%);fill-opacity:1;" d="M 109.566406 -0.03125 C 110.207031 -0.03125 110.851562 -0.03125 111.492188 -0.03125 C 112.617188 -0.0351562 113.746094 -0.0351562 114.871094 -0.0351562 C 116.554688 -0.03125 118.242188 -0.03125 119.925781 -0.0351562 C 122.800781 -0.0351562 125.675781 -0.0351562 128.546875 -0.0351562 C 131.457031 -0.0351562 134.367188 -0.0351562 137.277344 -0.0351562 C 137.371094 -0.0351562 137.460938 -0.0351562 137.558594 -0.0351562 C 138.398438 -0.0351562 139.242188 -0.0351562 140.085938 -0.0351562 C 142.199219 -0.0351562 144.3125 -0.0351562 146.425781 -0.0390625 C 146.523438 -0.0390625 146.621094 -0.0390625 146.71875 -0.0390625 C 151.488281 -0.0390625 156.253906 -0.0390625 161.019531 -0.0390625 C 161.125 -0.0390625 161.226562 -0.0390625 161.332031 -0.0390625 C 161.753906 -0.0390625 162.171875 -0.0390625 162.589844 -0.0390625 C 163.742188 -0.0390625 164.898438 -0.0390625 166.054688 -0.0390625 C 166.15625 -0.0390625 166.261719 -0.0390625 166.371094 -0.0390625 C 171.101562 -0.0390625 175.832031 -0.0390625 180.566406 -0.0390625 C 181.199219 -0.0390625 181.832031 -0.0390625 182.464844 -0.0390625 C 182.625 -0.0390625 182.625 -0.0390625 182.785156 -0.0390625 C 182.996094 -0.0390625 183.207031 -0.0390625 183.417969 -0.0390625 C 183.949219 -0.0390625 184.480469 -0.0390625 185.007812 -0.0390625 C 185.167969 -0.0390625 185.167969 -0.0390625 185.328125 -0.0390625 C 185.859375 -0.0390625 186.390625 -0.0390625 186.921875 -0.0390625 C 191.882812 -0.0390625 196.84375 -0.0390625 201.800781 -0.0390625 C 201.910156 -0.0390625 202.019531 -0.0390625 202.128906 -0.0390625 C 209.011719 -0.0390625 215.898438 -0.0390625 222.78125 -0.0390625 C 223.121094 -0.0390625 223.457031 -0.0390625 223.796875 -0.0390625 C 226.289062 -0.0390625 228.777344 -0.0390625 231.269531 -0.0390625 C 231.496094 -0.0390625 231.722656 -0.0390625 231.949219 -0.0390625 C 232.175781 -0.0390625 232.40625 -0.0390625 232.632812 -0.0390625 C 232.800781 -0.0390625 232.800781 -0.0390625 232.972656 -0.0390625 C 233.542969 -0.0390625 234.109375 -0.0390625 234.679688 -0.0390625 C 245.414062 -0.0390625 256.152344 -0.0390625 266.886719 -0.0390625 C 267 -0.0390625 267.113281 -0.0390625 267.230469 -0.0390625 C 270.648438 -0.0390625 274.066406 -0.0429688 277.484375 -0.0429688 C 281.222656 -0.0429688 284.957031 -0.0429688 288.695312 -0.0429688 C 288.863281 -0.0429688 288.863281 -0.0429688 289.035156 -0.0429688 C 296.027344 -0.0429688 303.019531 -0.046875 310.011719 -0.046875 C 310.117188 -0.046875 310.226562 -0.046875 310.335938 -0.046875 C 315.082031 -0.046875 319.828125 -0.046875 324.574219 -0.046875 C 326.375 -0.046875 328.179688 -0.046875 329.984375 -0.046875 C 330.40625 -0.046875 330.828125 -0.046875 331.25 -0.046875 C 336.085938 -0.046875 340.925781 -0.046875 345.761719 -0.046875 C 345.917969 -0.046875 345.917969 -0.046875 346.078125 -0.046875 C 347.753906 -0.046875 349.429688 -0.046875 351.105469 -0.046875 C 355.863281 -0.046875 360.625 -0.0507812 365.386719 -0.046875 C 365.480469 -0.046875 365.578125 -0.046875 365.679688 -0.046875 C 367.789062 -0.046875 369.902344 -0.046875 372.011719 -0.046875 C 372.855469 -0.046875 373.699219 -0.046875 374.539062 -0.046875 C 374.632812 -0.046875 374.722656 -0.046875 374.820312 -0.046875 C 377.726562 -0.046875 380.628906 -0.046875 383.535156 -0.046875 C 386.480469 -0.0507812 389.425781 -0.0507812 392.371094 -0.046875 C 394.042969 -0.046875 395.714844 -0.046875 397.386719 -0.046875 C 398.5 -0.0507812 399.613281 -0.0507812 400.730469 -0.046875 C 401.359375 -0.046875 401.988281 -0.046875 402.617188 -0.046875 C 407.230469 -0.0585938 411.820312 0.195312 416.394531 0.8125 C 416.503906 0.828125 416.609375 0.839844 416.722656 0.855469 C 420.730469 1.402344 424.699219 2.15625 428.625 3.125 C 428.71875 3.148438 428.8125 3.171875 428.910156 3.195312 C 435.511719 4.824219 441.972656 7.109375 448.125 10 C 448.261719 10.0625 448.398438 10.128906 448.539062 10.195312 C 449.445312 10.625 450.347656 11.058594 451.25 11.5 C 451.359375 11.554688 451.46875 11.605469 451.582031 11.660156 C 453.179688 12.4375 454.730469 13.285156 456.269531 14.171875 C 456.609375 14.367188 456.949219 14.554688 457.289062 14.746094 C 458.820312 15.601562 460.292969 16.53125 461.75 17.5 C 462.136719 17.757812 462.523438 18.015625 462.910156 18.269531 C 465.175781 19.765625 467.351562 21.34375 469.5 23 C 469.585938 23.066406 469.671875 23.132812 469.761719 23.203125 C 470.691406 23.917969 471.597656 24.660156 472.488281 25.421875 C 472.84375 25.726562 473.207031 26.019531 473.570312 26.3125 C 474.195312 26.820312 474.785156 27.355469 475.371094 27.902344 C 475.65625 28.167969 475.945312 28.421875 476.238281 28.675781 C 477.722656 29.96875 479.121094 31.359375 480.515625 32.75 C 480.582031 32.816406 480.648438 32.882812 480.71875 32.953125 C 481.394531 33.625 482.058594 34.300781 482.679688 35.023438 C 483.019531 35.414062 483.378906 35.789062 483.734375 36.164062 C 484.335938 36.804688 484.910156 37.457031 485.457031 38.140625 C 485.8125 38.574219 486.179688 38.992188 486.546875 39.414062 C 487.3125 40.292969 488.039062 41.199219 488.75 42.125 C 488.824219 42.222656 488.902344 42.320312 488.980469 42.421875 C 491.738281 45.996094 494.324219 49.738281 496.625 53.625 C 496.699219 53.75 496.773438 53.878906 496.851562 54.007812 C 498.246094 56.375 499.519531 58.796875 500.75 61.25 C 500.824219 61.398438 500.898438 61.542969 500.972656 61.695312 C 505.960938 71.691406 509.210938 82.546875 511.484375 98.140625 C 511.496094 98.25 511.507812 98.363281 511.519531 98.476562 C 511.921875 102.175781 512.039062 105.847656 512.03125 109.566406 C 512.03125 110.207031 512.03125 110.851562 512.03125 111.492188 C 512.035156 112.617188 512.035156 113.746094 512.035156 114.871094 C 512.03125 116.554688 512.03125 118.242188 512.035156 119.925781 C 512.035156 122.800781 512.035156 125.675781 512.035156 128.546875 C 512.035156 131.457031 512.035156 134.367188 512.035156 137.277344 C 512.035156 137.371094 512.035156 137.460938 512.035156 137.558594 C 512.035156 138.398438 512.035156 139.242188 512.035156 140.085938 C 512.035156 142.199219 512.035156 144.3125 512.039062 146.425781 C 512.039062 146.523438 512.039062 146.621094 512.039062 146.71875 C 512.039062 151.488281 512.039062 156.253906 512.039062 161.019531 C 512.039062 161.175781 512.039062 161.175781 512.039062 161.332031 C 512.039062 161.753906 512.039062 162.171875 512.039062 162.589844 C 512.039062 163.742188 512.039062 164.898438 512.039062 166.054688 C 512.039062 166.15625 512.039062 166.261719 512.039062 166.371094 C 512.039062 171.101562 512.039062 175.832031 512.039062 180.566406 C 512.039062 181.199219 512.039062 181.832031 512.039062 182.464844 C 512.039062 182.570312 512.039062 182.675781 512.039062 182.785156 C 512.039062 182.996094 512.039062 183.207031 512.039062 183.417969 C 512.039062 183.949219 512.039062 184.480469 512.039062 185.007812 C 512.039062 185.113281 512.039062 185.21875 512.039062 185.328125 C 512.039062 185.859375 512.039062 186.390625 512.039062 186.921875 C 512.039062 191.882812 512.039062 196.84375 512.039062 201.800781 C 512.039062 201.910156 512.039062 202.019531 512.039062 202.128906 C 512.039062 209.011719 512.039062 215.898438 512.039062 222.78125 C 512.039062 223.121094 512.039062 223.457031 512.039062 223.796875 C 512.039062 226.289062 512.039062 228.777344 512.039062 231.269531 C 512.039062 231.496094 512.039062 231.722656 512.039062 231.949219 C 512.039062 232.175781 512.039062 232.40625 512.039062 232.632812 C 512.039062 232.746094 512.039062 232.855469 512.039062 232.972656 C 512.039062 233.542969 512.039062 234.109375 512.039062 234.679688 C 512.039062 245.414062 512.039062 256.152344 512.039062 266.886719 C 512.039062 267 512.039062 267.113281 512.039062 267.230469 C 512.039062 270.648438 512.042969 274.066406 512.042969 277.484375 C 512.042969 281.222656 512.042969 284.957031 512.042969 288.695312 C 512.042969 288.808594 512.042969 288.917969 512.042969 289.035156 C 512.042969 296.027344 512.046875 303.019531 512.046875 310.011719 C 512.046875 310.171875 512.046875 310.171875 512.046875 310.335938 C 512.046875 315.082031 512.046875 319.828125 512.046875 324.574219 C 512.046875 326.375 512.046875 328.179688 512.046875 329.984375 C 512.046875 330.40625 512.046875 330.828125 512.046875 331.25 C 512.046875 336.085938 512.046875 340.925781 512.046875 345.761719 C 512.046875 345.867188 512.046875 345.96875 512.046875 346.078125 C 512.046875 347.753906 512.046875 349.429688 512.046875 351.105469 C 512.046875 355.863281 512.050781 360.625 512.046875 365.386719 C 512.046875 365.480469 512.046875 365.578125 512.046875 365.679688 C 512.046875 367.789062 512.046875 369.902344 512.046875 372.011719 C 512.046875 372.855469 512.046875 373.699219 512.046875 374.539062 C 512.046875 374.632812 512.046875 374.722656 512.046875 374.820312 C 512.046875 377.726562 512.046875 380.628906 512.046875 383.535156 C 512.050781 386.480469 512.050781 389.425781 512.046875 392.371094 C 512.046875 394.042969 512.046875 395.714844 512.046875 397.386719 C 512.050781 398.5 512.050781 399.613281 512.046875 400.730469 C 512.046875 401.359375 512.046875 401.988281 512.046875 402.617188 C 512.058594 407.230469 511.804688 411.820312 511.1875 416.394531 C 511.171875 416.503906 511.160156 416.609375 511.144531 416.722656 C 510.597656 420.730469 509.84375 424.699219 508.875 428.625 C 508.851562 428.71875 508.828125 428.8125 508.804688 428.910156 C 507.175781 435.511719 504.890625 441.972656 502 448.125 C 501.9375 448.261719 501.871094 448.398438 501.804688 448.539062 C 501.375 449.445312 500.941406 450.347656 500.5 451.25 C 500.421875 451.414062 500.421875 451.414062 500.339844 451.582031 C 499.5625 453.179688 498.714844 454.730469 497.828125 456.269531 C 497.632812 456.609375 497.445312 456.949219 497.253906 457.289062 C 496.398438 458.820312 495.46875 460.292969 494.5 461.75 C 494.242188 462.136719 493.984375 462.523438 493.730469 462.910156 C 492.234375 465.175781 490.65625 467.351562 489 469.5 C 488.933594 469.585938 488.867188 469.671875 488.796875 469.761719 C 488.082031 470.691406 487.339844 471.597656 486.578125 472.488281 C 486.273438 472.84375 485.980469 473.207031 485.6875 473.570312 C 485.179688 474.195312 484.644531 474.785156 484.097656 475.371094 C 483.832031 475.65625 483.578125 475.945312 483.324219 476.238281 C 482.03125 477.722656 480.640625 479.121094 479.25 480.515625 C 479.183594 480.582031 479.117188 480.648438 479.046875 480.71875 C 478.375 481.394531 477.699219 482.058594 476.976562 482.679688 C 476.585938 483.019531 476.210938 483.378906 475.835938 483.734375 C 475.195312 484.335938 474.542969 484.910156 473.859375 485.457031 C 473.425781 485.8125 473.007812 486.179688 472.585938 486.546875 C 471.707031 487.3125 470.800781 488.039062 469.875 488.75 C 469.777344 488.824219 469.679688 488.902344 469.578125 488.980469 C 466.003906 491.738281 462.261719 494.324219 458.375 496.625 C 458.25 496.699219 458.121094 496.773438 457.992188 496.851562 C 455.625 498.246094 453.203125 499.519531 450.75 500.75 C 450.601562 500.824219 450.457031 500.898438 450.304688 500.972656 C 440.308594 505.960938 429.453125 509.210938 413.859375 511.484375 C 413.75 511.496094 413.636719 511.507812 413.523438 511.519531 C 409.824219 511.921875 406.152344 512.039062 402.433594 512.03125 C 401.792969 512.03125 401.148438 512.03125 400.507812 512.03125 C 399.382812 512.035156 398.253906 512.035156 397.128906 512.035156 C 395.445312 512.03125 393.757812 512.03125 392.074219 512.035156 C 389.199219 512.035156 386.324219 512.035156 383.453125 512.035156 C 380.542969 512.035156 377.632812 512.035156 374.722656 512.035156 C 374.628906 512.035156 374.539062 512.035156 374.441406 512.035156 C 373.601562 512.035156 372.757812 512.035156 371.914062 512.035156 C 369.800781 512.035156 367.6875 512.035156 365.574219 512.039062 C 365.476562 512.039062 365.378906 512.039062 365.28125 512.039062 C 360.511719 512.039062 355.746094 512.039062 350.980469 512.039062 C 350.875 512.039062 350.773438 512.039062 350.667969 512.039062 C 350.246094 512.039062 349.828125 512.039062 349.410156 512.039062 C 348.257812 512.039062 347.101562 512.039062 345.945312 512.039062 C 345.789062 512.039062 345.789062 512.039062 345.628906 512.039062 C 340.898438 512.039062 336.167969 512.039062 331.433594 512.039062 C 330.800781 512.039062 330.167969 512.039062 329.535156 512.039062 C 329.429688 512.039062 329.324219 512.039062 329.214844 512.039062 C 329.003906 512.039062 328.792969 512.039062 328.582031 512.039062 C 328.050781 512.039062 327.519531 512.039062 326.992188 512.039062 C 326.832031 512.039062 326.832031 512.039062 326.671875 512.039062 C 326.140625 512.039062 325.609375 512.039062 325.078125 512.039062 C 320.117188 512.039062 315.15625 512.039062 310.199219 512.039062 C 310.089844 512.039062 309.980469 512.039062 309.871094 512.039062 C 302.988281 512.039062 296.101562 512.039062 289.21875 512.039062 C 288.878906 512.039062 288.542969 512.039062 288.203125 512.039062 C 285.710938 512.039062 283.222656 512.039062 280.730469 512.039062 C 280.503906 512.039062 280.277344 512.039062 280.050781 512.039062 C 279.824219 512.039062 279.59375 512.039062 279.367188 512.039062 C 279.253906 512.039062 279.144531 512.039062 279.027344 512.039062 C 278.457031 512.039062 277.890625 512.039062 277.320312 512.039062 C 266.585938 512.039062 255.847656 512.039062 245.113281 512.039062 C 245 512.039062 244.886719 512.039062 244.769531 512.039062 C 241.351562 512.039062 237.933594 512.042969 234.515625 512.042969 C 230.777344 512.042969 227.042969 512.042969 223.304688 512.042969 C 223.136719 512.042969 223.136719 512.042969 222.964844 512.042969 C 215.972656 512.042969 208.980469 512.046875 201.988281 512.046875 C 201.828125 512.046875 201.828125 512.046875 201.664062 512.046875 C 196.917969 512.046875 192.171875 512.046875 187.425781 512.046875 C 185.621094 512.046875 183.820312 512.046875 182.015625 512.046875 C 181.59375 512.046875 181.171875 512.046875 180.75 512.046875 C 175.914062 512.046875 171.074219 512.046875 166.238281 512.046875 C 166.132812 512.046875 166.03125 512.046875 165.921875 512.046875 C 164.246094 512.046875 162.570312 512.046875 160.894531 512.046875 C 156.136719 512.046875 151.375 512.050781 146.613281 512.046875 C 146.519531 512.046875 146.421875 512.046875 146.320312 512.046875 C 144.210938 512.046875 142.097656 512.046875 139.988281 512.046875 C 139.144531 512.046875 138.300781 512.046875 137.460938 512.046875 C 137.367188 512.046875 137.277344 512.046875 137.179688 512.046875 C 134.273438 512.046875 131.371094 512.046875 128.464844 512.046875 C 125.519531 512.050781 122.574219 512.050781 119.628906 512.046875 C 117.957031 512.046875 116.285156 512.046875 114.613281 512.046875 C 113.5 512.050781 112.386719 512.050781 111.269531 512.046875 C 110.640625 512.046875 110.011719 512.046875 109.382812 512.046875 C 104.769531 512.058594 100.179688 511.804688 95.605469 511.1875 C 95.496094 511.171875 95.390625 511.160156 95.277344 511.144531 C 91.269531 510.597656 87.300781 509.84375 83.375 508.875 C 83.28125 508.851562 83.1875 508.828125 83.089844 508.804688 C 76.488281 507.175781 70.027344 504.890625 63.875 502 C 63.738281 501.9375 63.601562 501.871094 63.460938 501.804688 C 62.554688 501.375 61.652344 500.941406 60.75 500.5 C 60.585938 500.421875 60.585938 500.421875 60.417969 500.339844 C 58.820312 499.5625 57.269531 498.714844 55.730469 497.828125 C 55.390625 497.632812 55.050781 497.445312 54.710938 497.253906 C 53.179688 496.398438 51.707031 495.46875 50.25 494.5 C 49.863281 494.242188 49.476562 493.984375 49.085938 493.730469 C 46.824219 492.234375 44.648438 490.65625 42.5 489 C 42.414062 488.933594 42.328125 488.867188 42.238281 488.796875 C 41.308594 488.082031 40.402344 487.339844 39.511719 486.578125 C 39.15625 486.273438 38.792969 485.980469 38.429688 485.6875 C 37.804688 485.179688 37.214844 484.644531 36.628906 484.097656 C 36.34375 483.832031 36.054688 483.578125 35.761719 483.324219 C 34.277344 482.03125 32.878906 480.640625 31.484375 479.25 C 31.417969 479.183594 31.351562 479.117188 31.28125 479.046875 C 30.605469 478.375 29.941406 477.699219 29.320312 476.976562 C 28.980469 476.585938 28.621094 476.210938 28.265625 475.835938 C 27.664062 475.195312 27.089844 474.542969 26.542969 473.859375 C 26.1875 473.425781 25.820312 473.007812 25.453125 472.585938 C 24.6875 471.707031 23.960938 470.800781 23.25 469.875 C 23.175781 469.777344 23.097656 469.679688 23.019531 469.578125 C 20.261719 466.003906 17.675781 462.261719 15.375 458.375 C 15.300781 458.25 15.226562 458.121094 15.148438 457.992188 C 13.753906 455.625 12.480469 453.203125 11.25 450.75 C 11.175781 450.601562 11.101562 450.457031 11.027344 450.304688 C 6.039062 440.308594 2.789062 429.453125 0.515625 413.859375 C 0.503906 413.75 0.492188 413.636719 0.480469 413.523438 C 0.078125 409.824219 -0.0390625 406.152344 -0.03125 402.433594 C -0.03125 401.792969 -0.03125 401.148438 -0.03125 400.507812 C -0.0351562 399.382812 -0.0351562 398.253906 -0.0351562 397.128906 C -0.03125 395.445312 -0.03125 393.757812 -0.0351562 392.074219 C -0.0351562 389.199219 -0.0351562 386.324219 -0.0351562 383.453125 C -0.0351562 380.542969 -0.0351562 377.632812 -0.0351562 374.722656 C -0.0351562 374.628906 -0.0351562 374.539062 -0.0351562 374.441406 C -0.0351562 373.601562 -0.0351562 372.757812 -0.0351562 371.914062 C -0.0351562 369.800781 -0.0351562 367.6875 -0.0390625 365.574219 C -0.0390625 365.476562 -0.0390625 365.378906 -0.0390625 365.28125 C -0.0390625 360.511719 -0.0390625 355.746094 -0.0390625 350.980469 C -0.0390625 350.875 -0.0390625 350.773438 -0.0390625 350.667969 C -0.0390625 350.246094 -0.0390625 349.828125 -0.0390625 349.410156 C -0.0390625 348.257812 -0.0390625 347.101562 -0.0390625 345.945312 C -0.0390625 345.84375 -0.0390625 345.738281 -0.0390625 345.628906 C -0.0390625 340.898438 -0.0390625 336.167969 -0.0390625 331.433594 C -0.0390625 330.800781 -0.0390625 330.167969 -0.0390625 329.535156 C -0.0390625 329.429688 -0.0390625 329.324219 -0.0390625 329.214844 C -0.0390625 329.003906 -0.0390625 328.792969 -0.0390625 328.582031 C -0.0390625 328.050781 -0.0390625 327.519531 -0.0390625 326.992188 C -0.0390625 326.886719 -0.0390625 326.78125 -0.0390625 326.671875 C -0.0390625 326.140625 -0.0390625 325.609375 -0.0390625 325.078125 C -0.0390625 320.117188 -0.0390625 315.15625 -0.0390625 310.199219 C -0.0390625 310.089844 -0.0390625 309.980469 -0.0390625 309.871094 C -0.0390625 302.988281 -0.0390625 296.101562 -0.0390625 289.21875 C -0.0390625 288.878906 -0.0390625 288.542969 -0.0390625 288.203125 C -0.0390625 285.710938 -0.0390625 283.222656 -0.0390625 280.730469 C -0.0390625 280.503906 -0.0390625 280.277344 -0.0390625 280.050781 C -0.0390625 279.824219 -0.0390625 279.59375 -0.0390625 279.367188 C -0.0390625 279.253906 -0.0390625 279.144531 -0.0390625 279.027344 C -0.0390625 278.457031 -0.0390625 277.890625 -0.0390625 277.320312 C -0.0390625 266.585938 -0.0390625 255.847656 -0.0390625 245.113281 C -0.0390625 245 -0.0390625 244.886719 -0.0390625 244.769531 C -0.0390625 241.351562 -0.0429688 237.933594 -0.0429688 234.515625 C -0.0429688 230.777344 -0.0429688 227.042969 -0.0429688 223.304688 C -0.0429688 223.191406 -0.0429688 223.082031 -0.0429688 222.964844 C -0.0429688 215.972656 -0.046875 208.980469 -0.046875 201.988281 C -0.046875 201.882812 -0.046875 201.773438 -0.046875 201.664062 C -0.046875 196.917969 -0.046875 192.171875 -0.046875 187.425781 C -0.046875 185.625 -0.046875 183.820312 -0.046875 182.015625 C -0.046875 181.59375 -0.046875 181.171875 -0.046875 180.75 C -0.046875 175.914062 -0.046875 171.074219 -0.046875 166.238281 C -0.046875 166.132812 -0.046875 166.03125 -0.046875 165.921875 C -0.046875 164.246094 -0.046875 162.570312 -0.046875 160.894531 C -0.046875 156.136719 -0.0507812 151.375 -0.046875 146.613281 C -0.046875 146.519531 -0.046875 146.421875 -0.046875 146.320312 C -0.046875 144.210938 -0.046875 142.097656 -0.046875 139.988281 C -0.046875 139.144531 -0.046875 138.300781 -0.046875 137.460938 C -0.046875 137.367188 -0.046875 137.277344 -0.046875 137.179688 C -0.046875 134.273438 -0.046875 131.371094 -0.046875 128.464844 C -0.0507812 125.519531 -0.0507812 122.574219 -0.046875 119.628906 C -0.046875 117.957031 -0.046875 116.285156 -0.046875 114.613281 C -0.0507812 113.5 -0.0507812 112.386719 -0.046875 111.269531 C -0.046875 110.640625 -0.046875 110.011719 -0.046875 109.382812 C -0.0585938 104.769531 0.195312 100.179688 0.8125 95.605469 C 0.828125 95.496094 0.839844 95.390625 0.855469 95.277344 C 1.402344 91.269531 2.15625 87.300781 3.125 83.375 C 3.148438 83.28125 3.171875 83.1875 3.195312 83.089844 C 4.824219 76.488281 7.109375 70.027344 10 63.875 C 10.0625 63.738281 10.128906 63.601562 10.195312 63.460938 C 10.625 62.554688 11.058594 61.652344 11.5 60.75 C 11.554688 60.640625 11.605469 60.53125 11.660156 60.417969 C 12.4375 58.820312 13.285156 57.269531 14.171875 55.730469 C 14.367188 55.390625 14.554688 55.050781 14.746094 54.710938 C 15.601562 53.179688 16.53125 51.707031 17.5 50.25 C 17.757812 49.863281 18.015625 49.476562 18.269531 49.085938 C 19.765625 46.824219 21.34375 44.648438 23 42.5 C 23.066406 42.414062 23.132812 42.328125 23.203125 42.238281 C 23.917969 41.308594 24.660156 40.402344 25.421875 39.511719 C 25.726562 39.15625 26.019531 38.792969 26.3125 38.429688 C 26.820312 37.804688 27.355469 37.214844 27.902344 36.628906 C 28.167969 36.34375 28.421875 36.054688 28.675781 35.761719 C 29.96875 34.277344 31.359375 32.878906 32.75 31.484375 C 32.851562 31.382812 32.851562 31.382812 32.953125 31.28125 C 33.625 30.605469 34.300781 29.941406 35.023438 29.320312 C 35.414062 28.980469 35.789062 28.621094 36.164062 28.265625 C 36.804688 27.664062 37.457031 27.089844 38.140625 26.542969 C 38.574219 26.1875 38.992188 25.820312 39.414062 25.453125 C 40.292969 24.6875 41.199219 23.960938 42.125 23.25 C 42.222656 23.175781 42.320312 23.097656 42.421875 23.019531 C 45.996094 20.261719 49.738281 17.675781 53.625 15.375 C 53.75 15.300781 53.878906 15.226562 54.007812 15.148438 C 56.375 13.753906 58.796875 12.480469 61.25 11.25 C 61.398438 11.175781 61.542969 11.101562 61.695312 11.027344 C 71.691406 6.039062 82.546875 2.789062 98.140625 0.515625 C 98.25 0.503906 98.363281 0.492188 98.476562 0.480469 C 102.175781 0.078125 105.847656 -0.0390625 109.566406 -0.03125 Z M 109.566406 -0.03125 "/>
<path style=" stroke:none;fill-rule:nonzero;fill:rgb(100%,94.509804%,94.509804%);fill-opacity:1;" d="M 231.125 301.375 C 231.507812 301.546875 231.769531 301.738281 232.066406 302.035156 C 232.152344 302.121094 232.234375 302.203125 232.324219 302.292969 C 232.417969 302.386719 232.511719 302.480469 232.605469 302.574219 C 232.707031 302.675781 232.804688 302.773438 232.90625 302.875 C 233.242188 303.210938 233.574219 303.542969 233.90625 303.878906 C 234.148438 304.117188 234.386719 304.355469 234.625 304.597656 C 235.140625 305.109375 235.65625 305.625 236.167969 306.140625 C 236.914062 306.886719 237.65625 307.632812 238.402344 308.378906 C 239.609375 309.585938 240.816406 310.796875 242.023438 312.003906 C 243.195312 313.179688 244.367188 314.355469 245.542969 315.527344 C 245.613281 315.601562 245.6875 315.671875 245.761719 315.746094 C 246.125 316.109375 246.484375 316.472656 246.847656 316.835938 C 249.859375 319.847656 252.867188 322.863281 255.875 325.875 C 256.257812 325.703125 256.519531 325.511719 256.816406 325.214844 C 256.902344 325.128906 256.984375 325.046875 257.074219 324.957031 C 257.214844 324.816406 257.214844 324.816406 257.355469 324.675781 C 257.457031 324.574219 257.554688 324.476562 257.65625 324.375 C 257.992188 324.039062 258.324219 323.707031 258.65625 323.371094 C 258.898438 323.132812 259.136719 322.894531 259.375 322.652344 C 259.890625 322.140625 260.40625 321.625 260.917969 321.109375 C 261.664062 320.363281 262.40625 319.617188 263.152344 318.871094 C 264.359375 317.664062 265.566406 316.453125 266.773438 315.246094 C 267.945312 314.070312 269.117188 312.894531 270.292969 311.722656 C 270.398438 311.613281 270.398438 311.613281 270.511719 311.503906 C 270.875 311.140625 271.234375 310.777344 271.597656 310.414062 C 274.609375 307.402344 277.617188 304.386719 280.625 301.375 C 281.042969 301.554688 281.316406 301.785156 281.636719 302.105469 C 281.789062 302.253906 281.789062 302.253906 281.941406 302.410156 C 282.050781 302.519531 282.164062 302.632812 282.277344 302.746094 C 282.394531 302.867188 282.515625 302.984375 282.632812 303.101562 C 282.960938 303.429688 283.289062 303.757812 283.613281 304.085938 C 283.964844 304.4375 284.316406 304.789062 284.671875 305.140625 C 285.28125 305.753906 285.890625 306.363281 286.503906 306.976562 C 287.382812 307.859375 288.265625 308.742188 289.148438 309.625 C 290.582031 311.058594 292.015625 312.492188 293.445312 313.925781 C 294.835938 315.320312 296.226562 316.714844 297.617188 318.105469 C 297.746094 318.234375 297.746094 318.234375 297.878906 318.367188 C 298.308594 318.796875 298.738281 319.226562 299.167969 319.65625 C 302.738281 323.230469 306.308594 326.800781 309.875 330.375 C 309.34375 331.007812 308.789062 331.601562 308.203125 332.183594 C 308.113281 332.277344 308.023438 332.367188 307.929688 332.460938 C 307.628906 332.761719 307.324219 333.066406 307.023438 333.367188 C 306.804688 333.585938 306.585938 333.804688 306.363281 334.027344 C 305.886719 334.503906 305.410156 334.980469 304.933594 335.457031 C 304.226562 336.164062 303.515625 336.871094 302.808594 337.582031 C 301.617188 338.773438 300.421875 339.964844 299.230469 341.15625 C 298.050781 342.339844 296.867188 343.519531 295.6875 344.699219 C 295.613281 344.773438 295.542969 344.84375 295.464844 344.921875 C 295.09375 345.292969 294.71875 345.667969 294.347656 346.039062 C 291.707031 348.679688 289.066406 351.320312 286.425781 353.960938 C 283.859375 356.523438 281.292969 359.089844 278.726562 361.652344 C 278.609375 361.773438 278.609375 361.773438 278.488281 361.894531 C 277.695312 362.6875 276.898438 363.480469 276.105469 364.277344 C 274.488281 365.894531 272.871094 367.511719 271.25 369.128906 C 271.175781 369.203125 271.101562 369.277344 271.027344 369.355469 C 266.058594 374.320312 261.09375 379.285156 256.125 384.25 C 255.761719 384.085938 255.5 383.90625 255.21875 383.625 C 255.140625 383.546875 255.0625 383.472656 254.984375 383.390625 C 254.898438 383.308594 254.816406 383.222656 254.726562 383.132812 C 254.636719 383.042969 254.546875 382.953125 254.453125 382.859375 C 254.144531 382.554688 253.839844 382.246094 253.535156 381.9375 C 253.3125 381.71875 253.089844 381.496094 252.871094 381.277344 C 252.386719 380.792969 251.90625 380.3125 251.425781 379.832031 C 250.710938 379.113281 249.992188 378.398438 249.277344 377.679688 C 248.074219 376.476562 246.867188 375.269531 245.664062 374.066406 C 244.472656 372.871094 243.277344 371.679688 242.085938 370.484375 C 242.011719 370.410156 241.9375 370.335938 241.859375 370.261719 C 241.484375 369.882812 241.109375 369.507812 240.730469 369.128906 C 238.0625 366.460938 235.398438 363.792969 232.730469 361.125 C 230.136719 358.53125 227.546875 355.9375 224.957031 353.34375 C 224.875 353.265625 224.796875 353.183594 224.714844 353.101562 C 223.910156 352.300781 223.109375 351.496094 222.308594 350.695312 C 220.671875 349.058594 219.039062 347.425781 217.40625 345.789062 C 217.332031 345.714844 217.253906 345.640625 217.179688 345.5625 C 212.160156 340.542969 207.140625 335.519531 202.125 330.5 C 202.539062 330.011719 202.953125 329.53125 203.410156 329.074219 C 203.507812 328.976562 203.609375 328.875 203.710938 328.773438 C 203.820312 328.664062 203.925781 328.558594 204.039062 328.449219 C 204.152344 328.332031 204.269531 328.214844 204.390625 328.09375 C 204.710938 327.773438 205.03125 327.453125 205.351562 327.136719 C 205.695312 326.789062 206.042969 326.441406 206.390625 326.097656 C 206.988281 325.5 207.585938 324.898438 208.1875 324.300781 C 209.050781 323.433594 209.917969 322.570312 210.785156 321.703125 C 212.191406 320.296875 213.59375 318.894531 215 317.488281 C 216.367188 316.125 217.730469 314.761719 219.097656 313.398438 C 219.179688 313.3125 219.265625 313.226562 219.351562 313.140625 C 219.773438 312.71875 220.195312 312.296875 220.617188 311.875 C 224.121094 308.375 227.621094 304.875 231.125 301.375 Z M 231.125 301.375 "/>
<path style=" stroke:none;fill-rule:nonzero;fill:rgb(100%,94.509804%,94.509804%);fill-opacity:1;" d="M 330.375 202.125 C 331.007812 202.65625 331.601562 203.210938 332.183594 203.796875 C 332.277344 203.886719 332.367188 203.976562 332.460938 204.070312 C 332.761719 204.371094 333.066406 204.675781 333.367188 204.976562 C 333.585938 205.195312 333.804688 205.414062 334.027344 205.636719 C 334.503906 206.113281 334.980469 206.589844 335.457031 207.066406 C 336.164062 207.773438 336.871094 208.484375 337.582031 209.191406 C 338.773438 210.382812 339.964844 211.578125 341.15625 212.769531 C 342.339844 213.949219 343.519531 215.132812 344.699219 216.3125 C 344.773438 216.386719 344.84375 216.457031 344.921875 216.535156 C 345.292969 216.90625 345.667969 217.28125 346.039062 217.652344 C 348.679688 220.292969 351.320312 222.933594 353.960938 225.574219 C 356.523438 228.140625 359.089844 230.707031 361.652344 233.273438 C 361.734375 233.351562 361.8125 233.429688 361.894531 233.511719 C 362.6875 234.304688 363.480469 235.101562 364.277344 235.894531 C 365.894531 237.511719 367.511719 239.128906 369.128906 240.75 C 369.238281 240.859375 369.238281 240.859375 369.355469 240.972656 C 374.320312 245.941406 379.285156 250.90625 384.25 255.875 C 384.085938 256.238281 383.90625 256.5 383.625 256.78125 C 383.546875 256.859375 383.472656 256.9375 383.390625 257.015625 C 383.308594 257.101562 383.222656 257.183594 383.132812 257.273438 C 383.042969 257.363281 382.953125 257.453125 382.859375 257.546875 C 382.554688 257.855469 382.246094 258.160156 381.9375 258.464844 C 381.71875 258.6875 381.496094 258.910156 381.277344 259.128906 C 380.792969 259.613281 380.3125 260.09375 379.832031 260.574219 C 379.113281 261.289062 378.398438 262.007812 377.679688 262.722656 C 376.476562 263.925781 375.269531 265.132812 374.066406 266.335938 C 372.871094 267.527344 371.679688 268.722656 370.484375 269.914062 C 370.410156 269.988281 370.335938 270.0625 370.261719 270.140625 C 369.882812 270.515625 369.507812 270.890625 369.128906 271.269531 C 366.460938 273.9375 363.792969 276.601562 361.125 279.269531 C 358.53125 281.863281 355.9375 284.453125 353.34375 287.042969 C 353.265625 287.125 353.183594 287.203125 353.101562 287.285156 C 352.300781 288.089844 351.496094 288.890625 350.695312 289.691406 C 349.058594 291.328125 347.425781 292.960938 345.789062 294.59375 C 345.714844 294.667969 345.640625 294.746094 345.5625 294.820312 C 340.542969 299.839844 335.519531 304.859375 330.5 309.875 C 330.011719 309.460938 329.53125 309.046875 329.074219 308.589844 C 328.976562 308.492188 328.875 308.390625 328.773438 308.289062 C 328.664062 308.179688 328.558594 308.074219 328.449219 307.960938 C 328.332031 307.847656 328.214844 307.730469 328.09375 307.609375 C 327.773438 307.289062 327.453125 306.96875 327.136719 306.648438 C 326.789062 306.304688 326.441406 305.957031 326.097656 305.609375 C 325.5 305.011719 324.898438 304.414062 324.300781 303.8125 C 323.433594 302.949219 322.570312 302.082031 321.703125 301.214844 C 320.296875 299.808594 318.894531 298.40625 317.488281 297 C 316.125 295.632812 314.761719 294.269531 313.398438 292.902344 C 313.3125 292.820312 313.226562 292.734375 313.140625 292.648438 C 312.71875 292.226562 312.296875 291.804688 311.875 291.382812 C 308.375 287.878906 304.875 284.378906 301.375 280.875 C 301.546875 280.492188 301.738281 280.230469 302.035156 279.933594 C 302.121094 279.847656 302.203125 279.765625 302.292969 279.675781 C 302.433594 279.535156 302.433594 279.535156 302.574219 279.394531 C 302.675781 279.292969 302.773438 279.195312 302.875 279.09375 C 303.210938 278.757812 303.542969 278.425781 303.878906 278.09375 C 304.117188 277.851562 304.355469 277.613281 304.597656 277.375 C 305.109375 276.859375 305.625 276.34375 306.140625 275.832031 C 306.886719 275.085938 307.632812 274.34375 308.378906 273.597656 C 309.585938 272.390625 310.796875 271.183594 312.003906 269.976562 C 313.179688 268.804688 314.355469 267.632812 315.527344 266.457031 C 315.636719 266.351562 315.636719 266.351562 315.746094 266.238281 C 316.109375 265.875 316.472656 265.515625 316.835938 265.152344 C 319.847656 262.140625 322.863281 259.132812 325.875 256.125 C 325.703125 255.742188 325.511719 255.480469 325.214844 255.183594 C 325.128906 255.097656 325.046875 255.015625 324.957031 254.925781 C 324.816406 254.785156 324.816406 254.785156 324.675781 254.644531 C 324.574219 254.542969 324.476562 254.445312 324.375 254.34375 C 324.039062 254.007812 323.707031 253.675781 323.371094 253.34375 C 323.132812 253.101562 322.894531 252.863281 322.652344 252.625 C 322.140625 252.109375 321.625 251.59375 321.109375 251.082031 C 320.363281 250.335938 319.617188 249.59375 318.871094 248.847656 C 317.664062 247.640625 316.453125 246.433594 315.246094 245.226562 C 314.070312 244.054688 312.894531 242.882812 311.722656 241.707031 C 311.648438 241.636719 311.578125 241.5625 311.503906 241.488281 C 311.140625 241.125 310.777344 240.765625 310.414062 240.402344 C 307.402344 237.390625 304.386719 234.382812 301.375 231.375 C 301.554688 230.957031 301.785156 230.683594 302.105469 230.363281 C 302.207031 230.261719 302.304688 230.164062 302.410156 230.058594 C 302.519531 229.949219 302.632812 229.835938 302.746094 229.722656 C 302.867188 229.605469 302.984375 229.484375 303.101562 229.367188 C 303.429688 229.039062 303.757812 228.710938 304.085938 228.386719 C 304.4375 228.035156 304.789062 227.683594 305.140625 227.328125 C 305.753906 226.71875 306.363281 226.109375 306.976562 225.496094 C 307.859375 224.617188 308.742188 223.734375 309.625 222.851562 C 311.058594 221.417969 312.492188 219.984375 313.925781 218.554688 C 315.320312 217.164062 316.714844 215.773438 318.105469 214.382812 C 318.191406 214.296875 318.277344 214.210938 318.367188 214.121094 C 318.796875 213.691406 319.226562 213.261719 319.65625 212.832031 C 323.230469 209.261719 326.800781 205.691406 330.375 202.125 Z M 330.375 202.125 "/>
<path style=" stroke:none;fill-rule:nonzero;fill:rgb(100%,94.509804%,94.509804%);fill-opacity:1;" d="M 181.5 202.125 C 181.988281 202.539062 182.46875 202.953125 182.925781 203.410156 C 183.023438 203.507812 183.125 203.609375 183.226562 203.710938 C 183.335938 203.820312 183.441406 203.925781 183.550781 204.039062 C 183.667969 204.152344 183.785156 204.269531 183.90625 204.390625 C 184.226562 204.710938 184.546875 205.03125 184.863281 205.351562 C 185.210938 205.695312 185.558594 206.042969 185.902344 206.390625 C 186.5 206.988281 187.101562 207.585938 187.699219 208.1875 C 188.566406 209.050781 189.429688 209.917969 190.296875 210.785156 C 191.703125 212.191406 193.105469 213.59375 194.511719 215 C 195.875 216.367188 197.238281 217.730469 198.601562 219.097656 C 198.6875 219.179688 198.773438 219.265625 198.859375 219.351562 C 199.28125 219.773438 199.703125 220.195312 200.125 220.617188 C 203.625 224.121094 207.125 227.621094 210.625 231.125 C 210.453125 231.507812 210.261719 231.769531 209.964844 232.066406 C 209.878906 232.152344 209.796875 232.234375 209.707031 232.324219 C 209.613281 232.417969 209.519531 232.511719 209.425781 232.605469 C 209.277344 232.753906 209.277344 232.753906 209.125 232.90625 C 208.789062 233.242188 208.457031 233.574219 208.121094 233.90625 C 207.882812 234.148438 207.644531 234.386719 207.402344 234.625 C 206.890625 235.140625 206.375 235.65625 205.859375 236.167969 C 205.113281 236.914062 204.367188 237.65625 203.621094 238.402344 C 202.414062 239.609375 201.203125 240.816406 199.996094 242.023438 C 198.820312 243.195312 197.644531 244.367188 196.472656 245.542969 C 196.398438 245.613281 196.328125 245.6875 196.253906 245.761719 C 195.890625 246.125 195.527344 246.484375 195.164062 246.847656 C 192.152344 249.859375 189.136719 252.867188 186.125 255.875 C 186.296875 256.257812 186.488281 256.519531 186.785156 256.816406 C 186.871094 256.902344 186.953125 256.984375 187.042969 257.074219 C 187.183594 257.214844 187.183594 257.214844 187.324219 257.355469 C 187.425781 257.457031 187.523438 257.554688 187.625 257.65625 C 187.960938 257.992188 188.292969 258.324219 188.628906 258.65625 C 188.867188 258.898438 189.105469 259.136719 189.347656 259.375 C 189.859375 259.890625 190.375 260.40625 190.890625 260.917969 C 191.636719 261.664062 192.382812 262.40625 193.128906 263.152344 C 194.335938 264.359375 195.546875 265.566406 196.753906 266.773438 C 197.929688 267.945312 199.105469 269.117188 200.277344 270.292969 C 200.351562 270.363281 200.421875 270.4375 200.496094 270.511719 C 200.859375 270.875 201.222656 271.234375 201.585938 271.597656 C 204.597656 274.609375 207.613281 277.617188 210.625 280.625 C 210.445312 281.042969 210.214844 281.316406 209.894531 281.636719 C 209.792969 281.738281 209.695312 281.835938 209.589844 281.941406 C 209.480469 282.050781 209.367188 282.164062 209.253906 282.277344 C 209.132812 282.394531 209.015625 282.515625 208.898438 282.632812 C 208.570312 282.960938 208.242188 283.289062 207.914062 283.613281 C 207.5625 283.964844 207.210938 284.316406 206.859375 284.671875 C 206.246094 285.28125 205.636719 285.890625 205.023438 286.503906 C 204.140625 287.382812 203.257812 288.265625 202.375 289.148438 C 200.941406 290.582031 199.507812 292.015625 198.074219 293.445312 C 196.679688 294.835938 195.285156 296.226562 193.894531 297.617188 C 193.765625 297.746094 193.765625 297.746094 193.632812 297.878906 C 193.203125 298.308594 192.773438 298.738281 192.34375 299.167969 C 188.769531 302.738281 185.199219 306.308594 181.625 309.875 C 180.992188 309.34375 180.398438 308.789062 179.816406 308.203125 C 179.722656 308.113281 179.632812 308.023438 179.539062 307.929688 C 179.238281 307.628906 178.933594 307.324219 178.632812 307.023438 C 178.414062 306.804688 178.195312 306.585938 177.972656 306.363281 C 177.496094 305.886719 177.019531 305.410156 176.542969 304.933594 C 175.835938 304.226562 175.128906 303.515625 174.417969 302.808594 C 173.226562 301.617188 172.035156 300.421875 170.84375 299.230469 C 169.660156 298.050781 168.480469 296.867188 167.300781 295.6875 C 167.191406 295.578125 167.191406 295.578125 167.078125 295.464844 C 166.707031 295.09375 166.332031 294.71875 165.960938 294.347656 C 163.320312 291.707031 160.679688 289.066406 158.039062 286.425781 C 155.476562 283.859375 152.910156 281.292969 150.347656 278.726562 C 150.226562 278.609375 150.226562 278.609375 150.105469 278.488281 C 149.3125 277.695312 148.519531 276.898438 147.722656 276.105469 C 146.105469 274.488281 144.488281 272.871094 142.871094 271.25 C 142.796875 271.175781 142.722656 271.101562 142.644531 271.027344 C 137.679688 266.058594 132.714844 261.09375 127.75 256.125 C 127.914062 255.761719 128.09375 255.5 128.375 255.21875 C 128.488281 255.101562 128.488281 255.101562 128.609375 254.984375 C 128.734375 254.855469 128.734375 254.855469 128.867188 254.726562 C 128.957031 254.636719 129.046875 254.546875 129.140625 254.453125 C 129.445312 254.144531 129.753906 253.839844 130.0625 253.535156 C 130.28125 253.3125 130.503906 253.089844 130.722656 252.871094 C 131.207031 252.386719 131.6875 251.90625 132.167969 251.425781 C 132.886719 250.710938 133.601562 249.992188 134.320312 249.277344 C 135.523438 248.074219 136.730469 246.867188 137.933594 245.664062 C 139.128906 244.472656 140.320312 243.277344 141.515625 242.085938 C 141.589844 242.011719 141.664062 241.9375 141.738281 241.859375 C 142.117188 241.484375 142.492188 241.109375 142.871094 240.730469 C 145.539062 238.0625 148.207031 235.398438 150.875 232.730469 C 153.46875 230.136719 156.0625 227.546875 158.65625 224.957031 C 158.734375 224.875 158.816406 224.796875 158.898438 224.714844 C 159.699219 223.910156 160.503906 223.109375 161.304688 222.308594 C 162.941406 220.671875 164.574219 219.039062 166.210938 217.40625 C 166.285156 217.332031 166.359375 217.253906 166.4375 217.179688 C 171.457031 212.160156 176.480469 207.140625 181.5 202.125 Z M 181.5 202.125 "/>
<path style=" stroke:none;fill-rule:nonzero;fill:rgb(100%,94.509804%,94.509804%);fill-opacity:1;" d="M 255.875 127.75 C 256.238281 127.914062 256.5 128.09375 256.78125 128.375 C 256.898438 128.488281 256.898438 128.488281 257.015625 128.609375 C 257.144531 128.734375 257.144531 128.734375 257.273438 128.867188 C 257.363281 128.957031 257.453125 129.046875 257.546875 129.140625 C 257.855469 129.445312 258.160156 129.753906 258.464844 130.0625 C 258.6875 130.28125 258.910156 130.503906 259.128906 130.722656 C 259.613281 131.207031 260.09375 131.6875 260.574219 132.167969 C 261.289062 132.886719 262.007812 133.601562 262.722656 134.320312 C 263.925781 135.523438 265.132812 136.730469 266.335938 137.933594 C 267.527344 139.128906 268.722656 140.320312 269.914062 141.515625 C 269.988281 141.589844 270.0625 141.664062 270.140625 141.738281 C 270.515625 142.117188 270.890625 142.492188 271.269531 142.871094 C 273.9375 145.539062 276.601562 148.207031 279.269531 150.875 C 281.863281 153.46875 284.453125 156.0625 287.042969 158.65625 C 287.164062 158.777344 287.164062 158.777344 287.285156 158.898438 C 288.089844 159.699219 288.890625 160.503906 289.691406 161.304688 C 291.328125 162.941406 292.960938 164.574219 294.59375 166.210938 C 294.667969 166.285156 294.746094 166.359375 294.820312 166.4375 C 299.839844 171.457031 304.859375 176.480469 309.875 181.5 C 309.460938 181.988281 309.046875 182.46875 308.589844 182.925781 C 308.441406 183.074219 308.441406 183.074219 308.289062 183.226562 C 308.179688 183.335938 308.074219 183.441406 307.960938 183.550781 C 307.847656 183.667969 307.730469 183.785156 307.609375 183.90625 C 307.289062 184.226562 306.96875 184.546875 306.648438 184.863281 C 306.304688 185.210938 305.957031 185.558594 305.609375 185.902344 C 305.011719 186.5 304.414062 187.101562 303.8125 187.699219 C 302.949219 188.566406 302.082031 189.429688 301.214844 190.296875 C 299.808594 191.703125 298.40625 193.105469 297 194.511719 C 295.632812 195.875 294.269531 197.238281 292.902344 198.601562 C 292.820312 198.6875 292.734375 198.773438 292.648438 198.859375 C 292.226562 199.28125 291.804688 199.703125 291.382812 200.125 C 287.878906 203.625 284.378906 207.125 280.875 210.625 C 280.492188 210.453125 280.230469 210.261719 279.933594 209.964844 C 279.847656 209.878906 279.765625 209.796875 279.675781 209.707031 C 279.582031 209.613281 279.488281 209.519531 279.394531 209.425781 C 279.292969 209.324219 279.195312 209.226562 279.09375 209.125 C 278.757812 208.789062 278.425781 208.457031 278.09375 208.121094 C 277.851562 207.882812 277.613281 207.644531 277.375 207.402344 C 276.859375 206.890625 276.34375 206.375 275.832031 205.859375 C 275.085938 205.113281 274.34375 204.367188 273.597656 203.621094 C 272.390625 202.414062 271.183594 201.203125 269.976562 199.996094 C 268.804688 198.820312 267.632812 197.644531 266.457031 196.472656 C 266.351562 196.363281 266.351562 196.363281 266.238281 196.253906 C 265.875 195.890625 265.515625 195.527344 265.152344 195.164062 C 262.140625 192.152344 259.132812 189.136719 256.125 186.125 C 255.742188 186.296875 255.480469 186.488281 255.183594 186.785156 C 255.097656 186.871094 255.015625 186.953125 254.925781 187.042969 C 254.785156 187.183594 254.785156 187.183594 254.644531 187.324219 C 254.542969 187.425781 254.445312 187.523438 254.34375 187.625 C 254.007812 187.960938 253.675781 188.292969 253.34375 188.628906 C 253.101562 188.867188 252.863281 189.105469 252.625 189.347656 C 252.109375 189.859375 251.59375 190.375 251.082031 190.890625 C 250.335938 191.636719 249.59375 192.382812 248.847656 193.128906 C 247.640625 194.335938 246.433594 195.546875 245.226562 196.753906 C 244.054688 197.929688 242.882812 199.105469 241.707031 200.277344 C 241.636719 200.351562 241.5625 200.421875 241.488281 200.496094 C 241.125 200.859375 240.765625 201.222656 240.402344 201.585938 C 237.390625 204.597656 234.382812 207.613281 231.375 210.625 C 230.957031 210.445312 230.683594 210.214844 230.363281 209.894531 C 230.261719 209.792969 230.164062 209.695312 230.058594 209.589844 C 229.949219 209.480469 229.835938 209.367188 229.722656 209.253906 C 229.605469 209.132812 229.484375 209.015625 229.367188 208.898438 C 229.039062 208.570312 228.710938 208.242188 228.386719 207.914062 C 228.035156 207.5625 227.683594 207.210938 227.328125 206.859375 C 226.71875 206.246094 226.109375 205.636719 225.496094 205.023438 C 224.617188 204.140625 223.734375 203.257812 222.851562 202.375 C 221.417969 200.941406 219.984375 199.507812 218.554688 198.074219 C 217.164062 196.679688 215.773438 195.285156 214.382812 193.894531 C 214.296875 193.808594 214.210938 193.722656 214.121094 193.632812 C 213.691406 193.203125 213.261719 192.773438 212.832031 192.34375 C 209.261719 188.769531 205.691406 185.199219 202.125 181.625 C 202.65625 180.992188 203.210938 180.398438 203.796875 179.816406 C 203.886719 179.722656 203.976562 179.632812 204.070312 179.539062 C 204.371094 179.238281 204.675781 178.933594 204.976562 178.632812 C 205.195312 178.414062 205.414062 178.195312 205.636719 177.972656 C 206.113281 177.496094 206.589844 177.019531 207.066406 176.542969 C 207.773438 175.835938 208.484375 175.128906 209.191406 174.417969 C 210.382812 173.226562 211.578125 172.035156 212.769531 170.84375 C 213.949219 169.660156 215.132812 168.480469 216.3125 167.300781 C 216.386719 167.226562 216.457031 167.15625 216.535156 167.078125 C 216.90625 166.707031 217.28125 166.332031 217.652344 165.960938 C 220.292969 163.320312 222.933594 160.679688 225.574219 158.039062 C 228.140625 155.476562 230.707031 152.910156 233.273438 150.347656 C 233.351562 150.265625 233.429688 150.1875 233.511719 150.105469 C 234.304688 149.3125 235.101562 148.519531 235.894531 147.722656 C 237.511719 146.105469 239.128906 144.488281 240.75 142.871094 C 240.859375 142.761719 240.859375 142.761719 240.972656 142.644531 C 245.941406 137.679688 250.90625 132.714844 255.875 127.75 Z M 255.875 127.75 "/>
<path style=" stroke:none;fill-rule:nonzero;fill:rgb(100%,94.509804%,94.509804%);fill-opacity:1;" d="M 255.875 232.75 C 256.246094 232.917969 256.507812 233.101562 256.792969 233.386719 C 256.875 233.46875 256.957031 233.546875 257.039062 233.632812 C 257.125 233.71875 257.214844 233.808594 257.304688 233.898438 C 257.398438 233.992188 257.492188 234.085938 257.589844 234.183594 C 257.902344 234.496094 258.21875 234.8125 258.53125 235.128906 C 258.757812 235.355469 258.984375 235.578125 259.207031 235.804688 C 259.695312 236.289062 260.179688 236.777344 260.664062 237.261719 C 261.367188 237.964844 262.066406 238.667969 262.769531 239.371094 C 263.910156 240.511719 265.046875 241.652344 266.1875 242.792969 C 267.292969 243.898438 268.398438 245.007812 269.503906 246.117188 C 269.574219 246.183594 269.640625 246.253906 269.710938 246.324219 C 270.054688 246.664062 270.394531 247.007812 270.738281 247.351562 C 273.574219 250.191406 276.414062 253.03125 279.25 255.875 C 279.082031 256.246094 278.898438 256.507812 278.613281 256.792969 C 278.53125 256.875 278.453125 256.957031 278.367188 257.039062 C 278.28125 257.125 278.191406 257.214844 278.101562 257.304688 C 278.007812 257.398438 277.914062 257.492188 277.816406 257.589844 C 277.503906 257.902344 277.1875 258.21875 276.871094 258.53125 C 276.644531 258.757812 276.421875 258.984375 276.195312 259.207031 C 275.710938 259.695312 275.222656 260.179688 274.738281 260.664062 C 274.035156 261.367188 273.332031 262.066406 272.628906 262.769531 C 271.488281 263.910156 270.347656 265.046875 269.207031 266.1875 C 268.101562 267.292969 266.992188 268.398438 265.882812 269.503906 C 265.816406 269.574219 265.746094 269.640625 265.675781 269.710938 C 265.335938 270.054688 264.992188 270.394531 264.648438 270.738281 C 261.808594 273.574219 258.96875 276.414062 256.125 279.25 C 255.753906 279.082031 255.492188 278.898438 255.207031 278.613281 C 255.125 278.53125 255.042969 278.453125 254.960938 278.367188 C 254.875 278.28125 254.785156 278.191406 254.695312 278.101562 C 254.601562 278.007812 254.507812 277.914062 254.410156 277.816406 C 254.097656 277.503906 253.78125 277.1875 253.46875 276.871094 C 253.242188 276.644531 253.015625 276.421875 252.792969 276.195312 C 252.304688 275.710938 251.820312 275.222656 251.335938 274.738281 C 250.632812 274.035156 249.933594 273.332031 249.230469 272.628906 C 248.089844 271.488281 246.953125 270.347656 245.8125 269.207031 C 244.707031 268.101562 243.601562 266.992188 242.496094 265.882812 C 242.425781 265.816406 242.359375 265.746094 242.289062 265.675781 C 241.945312 265.335938 241.605469 264.992188 241.261719 264.648438 C 238.425781 261.808594 235.585938 258.96875 232.75 256.125 C 232.917969 255.753906 233.101562 255.492188 233.386719 255.207031 C 233.46875 255.125 233.546875 255.042969 233.632812 254.960938 C 233.71875 254.875 233.808594 254.785156 233.898438 254.695312 C 233.992188 254.601562 234.085938 254.507812 234.183594 254.410156 C 234.496094 254.097656 234.8125 253.78125 235.128906 253.46875 C 235.355469 253.242188 235.578125 253.015625 235.804688 252.792969 C 236.289062 252.304688 236.777344 251.820312 237.261719 251.335938 C 237.964844 250.632812 238.667969 249.933594 239.371094 249.230469 C 240.511719 248.089844 241.652344 246.953125 242.792969 245.8125 C 243.898438 244.707031 245.007812 243.601562 246.117188 242.496094 C 246.183594 242.425781 246.253906 242.359375 246.324219 242.289062 C 246.664062 241.945312 247.007812 241.605469 247.351562 241.261719 C 250.191406 238.425781 253.03125 235.585938 255.875 232.75 Z M 255.875 232.75 "/>
</g>
</svg>
